<mxfile host="app.diagrams.net" modified="2023-11-25T12:39:44.278Z" agent="Mozilla/5.0 (Windows NT 10.0; Win64; x64) AppleWebKit/537.36 (KHTML, like Gecko) Chrome/119.0.0.0 Safari/537.36 Edg/119.0.0.0" etag="ZDXMtyf1u6tpeMPGpHgr" version="22.1.4" type="github">
  <diagram name="第 1 页" id="wQAcO3qcy1lErk8Cufgp">
    <mxGraphModel dx="802" dy="462" grid="1" gridSize="10" guides="1" tooltips="1" connect="1" arrows="1" fold="1" page="1" pageScale="1" pageWidth="827" pageHeight="1169" math="0" shadow="0">
      <root>
        <mxCell id="0" />
        <mxCell id="1" parent="0" />
        <mxCell id="Bvh5bpePwQICNc6_u_rW-1" value="" style="rounded=0;whiteSpace=wrap;html=1;" vertex="1" parent="1">
          <mxGeometry x="170" y="300" width="540" height="190" as="geometry" />
        </mxCell>
        <mxCell id="Bvh5bpePwQICNc6_u_rW-5" style="edgeStyle=orthogonalEdgeStyle;rounded=0;orthogonalLoop=1;jettySize=auto;html=1;entryX=0;entryY=0.5;entryDx=0;entryDy=0;endArrow=none;endFill=0;strokeWidth=3;" edge="1" parent="1" source="Bvh5bpePwQICNc6_u_rW-2" target="Bvh5bpePwQICNc6_u_rW-4">
          <mxGeometry relative="1" as="geometry" />
        </mxCell>
        <mxCell id="Bvh5bpePwQICNc6_u_rW-2" value="&lt;font style=&quot;font-size: 20px;&quot; face=&quot;Times New Roman&quot;&gt;CXL接口&lt;/font&gt;" style="rounded=0;whiteSpace=wrap;html=1;rotation=-90;" vertex="1" parent="1">
          <mxGeometry x="130" y="382.5" width="140" height="35" as="geometry" />
        </mxCell>
        <mxCell id="Bvh5bpePwQICNc6_u_rW-7" style="edgeStyle=orthogonalEdgeStyle;rounded=0;orthogonalLoop=1;jettySize=auto;html=1;entryX=0.5;entryY=0;entryDx=0;entryDy=0;startArrow=none;startFill=0;endArrow=none;endFill=0;strokeWidth=3;" edge="1" parent="1" source="Bvh5bpePwQICNc6_u_rW-4" target="Bvh5bpePwQICNc6_u_rW-6">
          <mxGeometry relative="1" as="geometry" />
        </mxCell>
        <mxCell id="Bvh5bpePwQICNc6_u_rW-21" style="edgeStyle=orthogonalEdgeStyle;rounded=0;orthogonalLoop=1;jettySize=auto;html=1;entryX=0;entryY=0.5;entryDx=0;entryDy=0;strokeWidth=3;endArrow=none;endFill=0;" edge="1" parent="1" source="Bvh5bpePwQICNc6_u_rW-4" target="Bvh5bpePwQICNc6_u_rW-9">
          <mxGeometry relative="1" as="geometry" />
        </mxCell>
        <mxCell id="Bvh5bpePwQICNc6_u_rW-4" value="&lt;font face=&quot;Times New Roman&quot; style=&quot;font-size: 20px;&quot;&gt;索引&lt;/font&gt;" style="rounded=0;whiteSpace=wrap;html=1;" vertex="1" parent="1">
          <mxGeometry x="250" y="330" width="80" height="30" as="geometry" />
        </mxCell>
        <mxCell id="Bvh5bpePwQICNc6_u_rW-22" style="rounded=0;orthogonalLoop=1;jettySize=auto;html=1;entryX=0.004;entryY=0.3;entryDx=0;entryDy=0;endArrow=none;endFill=0;entryPerimeter=0;strokeWidth=3;" edge="1" parent="1" source="Bvh5bpePwQICNc6_u_rW-6" target="Bvh5bpePwQICNc6_u_rW-14">
          <mxGeometry relative="1" as="geometry" />
        </mxCell>
        <mxCell id="Bvh5bpePwQICNc6_u_rW-6" value="&lt;font face=&quot;Times New Roman&quot; style=&quot;font-size: 20px;&quot;&gt;DRAM&lt;br&gt;缓存&lt;/font&gt;" style="rounded=0;whiteSpace=wrap;html=1;" vertex="1" parent="1">
          <mxGeometry x="250" y="400" width="80" height="60" as="geometry" />
        </mxCell>
        <mxCell id="Bvh5bpePwQICNc6_u_rW-25" style="edgeStyle=orthogonalEdgeStyle;rounded=0;orthogonalLoop=1;jettySize=auto;html=1;entryX=0;entryY=0.5;entryDx=0;entryDy=0;strokeWidth=3;endArrow=none;endFill=0;" edge="1" parent="1" source="Bvh5bpePwQICNc6_u_rW-9" target="Bvh5bpePwQICNc6_u_rW-23">
          <mxGeometry relative="1" as="geometry" />
        </mxCell>
        <mxCell id="Bvh5bpePwQICNc6_u_rW-9" value="&lt;font face=&quot;Times New Roman&quot; style=&quot;font-size: 20px;&quot;&gt;预取&lt;/font&gt;" style="rounded=0;whiteSpace=wrap;html=1;" vertex="1" parent="1">
          <mxGeometry x="375" y="330" width="110" height="30" as="geometry" />
        </mxCell>
        <mxCell id="Bvh5bpePwQICNc6_u_rW-10" value="" style="shape=table;startSize=0;container=1;collapsible=0;childLayout=tableLayout;" vertex="1" parent="1">
          <mxGeometry x="360" y="400" width="140" height="70" as="geometry" />
        </mxCell>
        <mxCell id="Bvh5bpePwQICNc6_u_rW-11" value="" style="shape=tableRow;horizontal=0;startSize=0;swimlaneHead=0;swimlaneBody=0;strokeColor=inherit;top=0;left=0;bottom=0;right=0;collapsible=0;dropTarget=0;fillColor=none;points=[[0,0.5],[1,0.5]];portConstraint=eastwest;" vertex="1" parent="Bvh5bpePwQICNc6_u_rW-10">
          <mxGeometry width="140" height="23" as="geometry" />
        </mxCell>
        <mxCell id="Bvh5bpePwQICNc6_u_rW-12" value="&lt;font face=&quot;Times New Roman&quot; style=&quot;font-size: 18px;&quot;&gt;地址&lt;/font&gt;" style="shape=partialRectangle;html=1;whiteSpace=wrap;connectable=0;strokeColor=inherit;overflow=hidden;fillColor=none;top=0;left=0;bottom=0;right=0;pointerEvents=1;" vertex="1" parent="Bvh5bpePwQICNc6_u_rW-11">
          <mxGeometry width="70" height="23" as="geometry">
            <mxRectangle width="70" height="23" as="alternateBounds" />
          </mxGeometry>
        </mxCell>
        <mxCell id="Bvh5bpePwQICNc6_u_rW-13" value="&lt;font face=&quot;Times New Roman&quot; style=&quot;font-size: 18px;&quot;&gt;请求&lt;/font&gt;" style="shape=partialRectangle;html=1;whiteSpace=wrap;connectable=0;strokeColor=inherit;overflow=hidden;fillColor=none;top=0;left=0;bottom=0;right=0;pointerEvents=1;" vertex="1" parent="Bvh5bpePwQICNc6_u_rW-11">
          <mxGeometry x="70" width="70" height="23" as="geometry">
            <mxRectangle width="70" height="23" as="alternateBounds" />
          </mxGeometry>
        </mxCell>
        <mxCell id="Bvh5bpePwQICNc6_u_rW-14" value="" style="shape=tableRow;horizontal=0;startSize=0;swimlaneHead=0;swimlaneBody=0;strokeColor=inherit;top=0;left=0;bottom=0;right=0;collapsible=0;dropTarget=0;fillColor=none;points=[[0,0.5],[1,0.5]];portConstraint=eastwest;" vertex="1" parent="Bvh5bpePwQICNc6_u_rW-10">
          <mxGeometry y="23" width="140" height="24" as="geometry" />
        </mxCell>
        <mxCell id="Bvh5bpePwQICNc6_u_rW-15" value="&lt;font face=&quot;Times New Roman&quot; style=&quot;font-size: 18px;&quot;&gt;地址&lt;/font&gt;" style="shape=partialRectangle;html=1;whiteSpace=wrap;connectable=0;strokeColor=inherit;overflow=hidden;fillColor=none;top=0;left=0;bottom=0;right=0;pointerEvents=1;" vertex="1" parent="Bvh5bpePwQICNc6_u_rW-14">
          <mxGeometry width="70" height="24" as="geometry">
            <mxRectangle width="70" height="24" as="alternateBounds" />
          </mxGeometry>
        </mxCell>
        <mxCell id="Bvh5bpePwQICNc6_u_rW-16" value="&lt;font face=&quot;Times New Roman&quot;&gt;&lt;span style=&quot;font-size: 18px;&quot;&gt;信息&lt;/span&gt;&lt;/font&gt;" style="shape=partialRectangle;html=1;whiteSpace=wrap;connectable=0;strokeColor=inherit;overflow=hidden;fillColor=none;top=0;left=0;bottom=0;right=0;pointerEvents=1;" vertex="1" parent="Bvh5bpePwQICNc6_u_rW-14">
          <mxGeometry x="70" width="70" height="24" as="geometry">
            <mxRectangle width="70" height="24" as="alternateBounds" />
          </mxGeometry>
        </mxCell>
        <mxCell id="Bvh5bpePwQICNc6_u_rW-17" value="" style="shape=tableRow;horizontal=0;startSize=0;swimlaneHead=0;swimlaneBody=0;strokeColor=inherit;top=0;left=0;bottom=0;right=0;collapsible=0;dropTarget=0;fillColor=none;points=[[0,0.5],[1,0.5]];portConstraint=eastwest;" vertex="1" parent="Bvh5bpePwQICNc6_u_rW-10">
          <mxGeometry y="47" width="140" height="23" as="geometry" />
        </mxCell>
        <mxCell id="Bvh5bpePwQICNc6_u_rW-18" value="&lt;font face=&quot;Times New Roman&quot; style=&quot;font-size: 18px;&quot;&gt;地址&lt;/font&gt;" style="shape=partialRectangle;html=1;whiteSpace=wrap;connectable=0;strokeColor=inherit;overflow=hidden;fillColor=none;top=0;left=0;bottom=0;right=0;pointerEvents=1;" vertex="1" parent="Bvh5bpePwQICNc6_u_rW-17">
          <mxGeometry width="70" height="23" as="geometry">
            <mxRectangle width="70" height="23" as="alternateBounds" />
          </mxGeometry>
        </mxCell>
        <mxCell id="Bvh5bpePwQICNc6_u_rW-19" value="" style="shape=partialRectangle;html=1;whiteSpace=wrap;connectable=0;strokeColor=inherit;overflow=hidden;fillColor=none;top=0;left=0;bottom=0;right=0;pointerEvents=1;" vertex="1" parent="Bvh5bpePwQICNc6_u_rW-17">
          <mxGeometry x="70" width="70" height="23" as="geometry">
            <mxRectangle width="70" height="23" as="alternateBounds" />
          </mxGeometry>
        </mxCell>
        <mxCell id="Bvh5bpePwQICNc6_u_rW-20" value="&lt;font face=&quot;Times New Roman&quot; style=&quot;font-size: 20px;&quot;&gt;MSHR&lt;/font&gt;" style="text;html=1;strokeColor=none;fillColor=none;align=center;verticalAlign=middle;whiteSpace=wrap;rounded=0;" vertex="1" parent="1">
          <mxGeometry x="400" y="370" width="60" height="30" as="geometry" />
        </mxCell>
        <mxCell id="Bvh5bpePwQICNc6_u_rW-23" value="&lt;font face=&quot;Times New Roman&quot;&gt;&lt;span style=&quot;font-size: 20px;&quot;&gt;地址转换&lt;/span&gt;&lt;/font&gt;" style="rounded=0;whiteSpace=wrap;html=1;" vertex="1" parent="1">
          <mxGeometry x="540" y="317.5" width="120" height="55" as="geometry" />
        </mxCell>
        <mxCell id="Bvh5bpePwQICNc6_u_rW-35" style="edgeStyle=orthogonalEdgeStyle;rounded=0;orthogonalLoop=1;jettySize=auto;html=1;exitX=1;exitY=0.5;exitDx=0;exitDy=0;entryX=0.5;entryY=1;entryDx=0;entryDy=0;" edge="1" parent="1" source="Bvh5bpePwQICNc6_u_rW-24" target="Bvh5bpePwQICNc6_u_rW-30">
          <mxGeometry relative="1" as="geometry" />
        </mxCell>
        <mxCell id="Bvh5bpePwQICNc6_u_rW-24" value="" style="rounded=0;whiteSpace=wrap;html=1;" vertex="1" parent="1">
          <mxGeometry x="520" y="400" width="168" height="70" as="geometry" />
        </mxCell>
        <mxCell id="Bvh5bpePwQICNc6_u_rW-26" style="edgeStyle=orthogonalEdgeStyle;rounded=0;orthogonalLoop=1;jettySize=auto;html=1;exitX=1;exitY=0.5;exitDx=0;exitDy=0;endArrow=none;endFill=0;strokeWidth=3;" edge="1" parent="1">
          <mxGeometry relative="1" as="geometry">
            <mxPoint x="510" y="346" as="targetPoint" />
            <mxPoint x="500" y="431" as="sourcePoint" />
            <Array as="points">
              <mxPoint x="510" y="431" />
              <mxPoint x="510" y="346" />
            </Array>
          </mxGeometry>
        </mxCell>
        <mxCell id="Bvh5bpePwQICNc6_u_rW-27" value="&lt;font face=&quot;Times New Roman&quot; style=&quot;font-size: 20px;&quot;&gt;闪存&lt;/font&gt;" style="text;html=1;strokeColor=none;fillColor=none;align=center;verticalAlign=middle;whiteSpace=wrap;rounded=0;" vertex="1" parent="1">
          <mxGeometry x="570" y="372.5" width="60" height="30" as="geometry" />
        </mxCell>
        <mxCell id="Bvh5bpePwQICNc6_u_rW-28" value="&lt;font style=&quot;font-size: 14px;&quot; face=&quot;Times New Roman&quot;&gt;Chip&lt;/font&gt;" style="rounded=1;whiteSpace=wrap;html=1;" vertex="1" parent="1">
          <mxGeometry x="568" y="410" width="30" height="20" as="geometry" />
        </mxCell>
        <mxCell id="Bvh5bpePwQICNc6_u_rW-29" value="&lt;font style=&quot;font-size: 14px;&quot; face=&quot;Times New Roman&quot;&gt;Chip&lt;/font&gt;" style="rounded=1;whiteSpace=wrap;html=1;" vertex="1" parent="1">
          <mxGeometry x="608" y="410" width="30" height="20" as="geometry" />
        </mxCell>
        <mxCell id="Bvh5bpePwQICNc6_u_rW-30" value="&lt;font style=&quot;font-size: 14px;&quot; face=&quot;Times New Roman&quot;&gt;Chip&lt;/font&gt;" style="rounded=1;whiteSpace=wrap;html=1;" vertex="1" parent="1">
          <mxGeometry x="648" y="410" width="30" height="20" as="geometry" />
        </mxCell>
        <mxCell id="Bvh5bpePwQICNc6_u_rW-31" value="&lt;font style=&quot;font-size: 14px;&quot; face=&quot;Times New Roman&quot;&gt;Chip&lt;/font&gt;" style="rounded=1;whiteSpace=wrap;html=1;" vertex="1" parent="1">
          <mxGeometry x="568" y="440" width="30" height="20" as="geometry" />
        </mxCell>
        <mxCell id="Bvh5bpePwQICNc6_u_rW-32" value="&lt;font style=&quot;font-size: 14px;&quot; face=&quot;Times New Roman&quot;&gt;Chip&lt;/font&gt;" style="rounded=1;whiteSpace=wrap;html=1;" vertex="1" parent="1">
          <mxGeometry x="608" y="440" width="30" height="20" as="geometry" />
        </mxCell>
        <mxCell id="Bvh5bpePwQICNc6_u_rW-33" value="&lt;font style=&quot;font-size: 14px;&quot; face=&quot;Times New Roman&quot;&gt;Chip&lt;/font&gt;" style="rounded=1;whiteSpace=wrap;html=1;" vertex="1" parent="1">
          <mxGeometry x="648" y="440" width="30" height="20" as="geometry" />
        </mxCell>
        <mxCell id="Bvh5bpePwQICNc6_u_rW-34" style="edgeStyle=orthogonalEdgeStyle;rounded=0;orthogonalLoop=1;jettySize=auto;html=1;entryX=1;entryY=0.5;entryDx=0;entryDy=0;exitX=1;exitY=0.5;exitDx=0;exitDy=0;endArrow=none;endFill=0;strokeWidth=3;" edge="1" parent="1" source="Bvh5bpePwQICNc6_u_rW-23" target="Bvh5bpePwQICNc6_u_rW-24">
          <mxGeometry relative="1" as="geometry">
            <Array as="points">
              <mxPoint x="700" y="345" />
              <mxPoint x="700" y="435" />
            </Array>
          </mxGeometry>
        </mxCell>
        <mxCell id="Bvh5bpePwQICNc6_u_rW-36" value="" style="endArrow=none;html=1;rounded=0;entryX=1;entryY=0.5;entryDx=0;entryDy=0;strokeWidth=3;" edge="1" parent="1">
          <mxGeometry width="50" height="50" relative="1" as="geometry">
            <mxPoint x="583" y="435" as="sourcePoint" />
            <mxPoint x="689" y="435" as="targetPoint" />
          </mxGeometry>
        </mxCell>
        <mxCell id="Bvh5bpePwQICNc6_u_rW-38" value="" style="endArrow=none;html=1;rounded=0;strokeWidth=3;" edge="1" parent="1">
          <mxGeometry width="50" height="50" relative="1" as="geometry">
            <mxPoint x="582.81" y="440" as="sourcePoint" />
            <mxPoint x="582.81" y="430" as="targetPoint" />
            <Array as="points">
              <mxPoint x="582.81" y="430" />
            </Array>
          </mxGeometry>
        </mxCell>
        <mxCell id="Bvh5bpePwQICNc6_u_rW-39" value="&lt;font face=&quot;Times New Roman&quot; style=&quot;font-size: 16px;&quot;&gt;通道 0&lt;/font&gt;" style="text;html=1;strokeColor=none;fillColor=none;align=center;verticalAlign=middle;whiteSpace=wrap;rounded=0;" vertex="1" parent="1">
          <mxGeometry x="513" y="402.5" width="60" height="30" as="geometry" />
        </mxCell>
        <mxCell id="Bvh5bpePwQICNc6_u_rW-40" value="" style="endArrow=none;html=1;rounded=0;strokeWidth=3;" edge="1" parent="1">
          <mxGeometry width="50" height="50" relative="1" as="geometry">
            <mxPoint x="622.81" y="440" as="sourcePoint" />
            <mxPoint x="622.81" y="430" as="targetPoint" />
            <Array as="points">
              <mxPoint x="622.81" y="430" />
            </Array>
          </mxGeometry>
        </mxCell>
        <mxCell id="Bvh5bpePwQICNc6_u_rW-41" value="" style="endArrow=none;html=1;rounded=0;strokeWidth=3;" edge="1" parent="1">
          <mxGeometry width="50" height="50" relative="1" as="geometry">
            <mxPoint x="663.81" y="440" as="sourcePoint" />
            <mxPoint x="663.81" y="430" as="targetPoint" />
            <Array as="points">
              <mxPoint x="663.81" y="430" />
            </Array>
          </mxGeometry>
        </mxCell>
        <mxCell id="Bvh5bpePwQICNc6_u_rW-42" value="&lt;font face=&quot;Times New Roman&quot; style=&quot;font-size: 16px;&quot;&gt;通道 1&lt;/font&gt;" style="text;html=1;strokeColor=none;fillColor=none;align=center;verticalAlign=middle;whiteSpace=wrap;rounded=0;" vertex="1" parent="1">
          <mxGeometry x="513" y="435" width="60" height="30" as="geometry" />
        </mxCell>
      </root>
    </mxGraphModel>
  </diagram>
</mxfile>
